<svg width="514" height="454" viewBox="0 0 514 454" fill="none" xmlns="http://www.w3.org/2000/svg">
<g clip-path="url(#clip0_482_8542)">
<path d="M500.879 419.199H460.473V419.504H500.879V419.199Z" fill="#EBEBEB"/>
<path d="M356.09 422.518H345.488V422.823H356.09V422.518Z" fill="#EBEBEB"/>
<path d="M459.252 407.875H435.84V408.18H459.252V407.875Z" fill="#EBEBEB"/>
<path d="M68.6918 409.926H16V410.231H68.6918V409.926Z" fill="#EBEBEB"/>
<path d="M87.2851 409.926H79.5625V410.231H87.2851V409.926Z" fill="#EBEBEB"/>
<path d="M226.684 415.074H112.395V415.379H226.684V415.074Z" fill="#EBEBEB"/>
<path d="M242.849 345.143H7.26698C3.42398 345.143 0.300781 342.019 0.300781 338.175V6.96753C0.300781 3.1238 3.42398 0 7.26698 0H242.849C246.692 0 249.815 3.1238 249.815 6.96753V338.175C249.815 342.019 246.692 345.143 242.849 345.143ZM7.26698 0.305058C3.59478 0.305058 0.605781 3.29463 0.605781 6.96753V338.175C0.605781 341.848 3.59478 344.838 7.26698 344.838H242.849C246.521 344.838 249.51 341.848 249.51 338.175V6.96753C249.51 3.29463 246.521 0.305058 242.849 0.305058H7.26698Z" fill="#EBEBEB"/>
<path d="M506.736 345.143H271.154C267.311 345.143 264.188 342.019 264.188 338.175V6.96753C264.188 3.1238 267.311 0 271.154 0H506.736C510.579 0 513.702 3.1238 513.702 6.96753V338.175C513.702 342.019 510.579 345.143 506.736 345.143ZM271.154 0.305058C267.482 0.305058 264.493 3.29463 264.493 6.96753V338.175C264.493 341.848 267.482 344.838 271.154 344.838H506.736C510.408 344.838 513.397 341.848 513.397 338.175V6.96753C513.397 3.29463 510.408 0.305058 506.736 0.305058H271.154Z" fill="#EBEBEB"/>
<path d="M562 399.566H-48V399.871H562V399.566Z" fill="#EBEBEB"/>
<path d="M158.923 84.5859H70.2773V196.933H158.923V84.5859Z" fill="#F0F0F0"/>
<path d="M150.101 95.7754H79.1094V185.755H150.101V95.7754Z" fill="#FAFAFA"/>
<path d="M63.4327 196.945H70.2891L70.2891 84.5984H63.4327L63.4327 196.945Z" fill="#E0E0E0"/>
<path d="M124.933 142.156C132.863 150.087 132.863 162.961 124.933 170.892C117.003 178.824 104.132 178.824 96.2024 170.892C88.2724 162.961 117.003 134.224 124.933 142.156Z" fill="#F5F5F5"/>
<path d="M103.716 140.582C97.4696 134.334 97.4696 124.218 103.716 117.971C109.962 111.723 120.076 111.723 126.323 117.971C132.569 124.218 109.962 146.829 103.716 140.582Z" fill="#EBEBEB"/>
<path d="M428.384 242.547H417.855V400.299H428.384V242.547Z" fill="#F0F0F0"/>
<path d="M432.971 242.547H423.809V400.299H432.971V242.547Z" fill="#E6E6E6"/>
<path d="M322.232 242.547H311.703V400.299H322.232V242.547Z" fill="#F0F0F0"/>
<path d="M326.818 242.547H317.656V400.299H326.818V242.547Z" fill="#E6E6E6"/>
<path d="M468.302 242.547H457.773V400.299H468.302V242.547Z" fill="#F0F0F0"/>
<path d="M472.877 242.547H463.715V400.299H472.877V242.547Z" fill="#E6E6E6"/>
<path d="M362.15 242.547H351.621V400.299H362.15V242.547Z" fill="#F0F0F0"/>
<path d="M472.889 232.418H311.715V245.06H472.889V232.418Z" fill="#F0F0F0"/>
<path d="M357.575 232.418H311.715V245.06H357.575V232.418Z" fill="#E0E0E0"/>
<path d="M366.736 242.547H357.574V400.299H366.736V242.547Z" fill="#E6E6E6"/>
<path d="M101.523 233.211H34.1055V400.285H101.523V233.211Z" fill="#E6E6E6"/>
<path d="M227.633 233.211H86.8086V400.285H227.633V233.211Z" fill="#F5F5F5"/>
<path d="M179.651 243.766H202.648C212.737 243.766 220.923 251.953 220.923 262.045V392H161.375V262.045C161.375 251.953 169.561 243.766 179.651 243.766Z" fill="#EBEBEB"/>
<path d="M113.162 243.766H136.159C146.249 243.766 154.435 251.953 154.435 262.045V392H94.8867V262.045C94.8867 251.953 103.073 243.766 113.162 243.766Z" fill="#EBEBEB"/>
<path d="M149.079 316.761C149.079 320.226 146.432 323.045 143.174 323.045C139.917 323.045 137.27 320.238 137.27 316.761C137.27 313.283 139.917 310.477 143.174 310.477C146.432 310.477 149.079 313.283 149.079 316.761Z" fill="#E0E0E0"/>
<path d="M179.54 316.761C179.54 320.226 176.893 323.045 173.635 323.045C170.378 323.045 167.73 320.238 167.73 316.761C167.73 313.283 170.378 310.477 173.635 310.477C176.893 310.477 179.54 313.283 179.54 316.761Z" fill="#E0E0E0"/>
<path d="M256.999 453.999C387.64 453.999 493.545 447.815 493.545 440.186C493.545 432.557 387.64 426.373 256.999 426.373C126.358 426.373 20.4531 432.557 20.4531 440.186C20.4531 447.815 126.358 453.999 256.999 453.999Z" fill="#F5F5F5"/>
<path d="M308.874 406.863C308.764 389.414 303.567 378.7 299.236 372.782C294.551 366.388 289.83 364.07 289.781 364.058L290.33 362.898C290.525 362.996 309.923 372.624 310.155 406.851H308.874V406.863Z" fill="#0A65FC"/>
<path d="M313.913 403.789L312.644 403.679C317.646 347.011 279.753 327.109 279.375 326.914L279.948 325.779C280.339 325.975 319.001 346.279 313.913 403.801V403.789Z" fill="#0A65FC"/>
<path d="M318.196 405.899C316.842 373.636 320.258 337.749 320.295 337.383L321.563 337.505C321.527 337.859 318.123 373.66 319.477 405.838L318.196 405.887V405.899Z" fill="#0A65FC"/>
<path d="M320.72 407.779C322.928 394.015 328.332 386.194 332.468 382.057C336.946 377.579 340.959 376.334 340.996 376.322L340.703 375.346C340.532 375.395 324.05 380.642 319.707 407.633L320.72 407.792V407.779Z" fill="#0A65FC"/>
<g opacity="0.3">
<path d="M308.874 406.863C308.764 389.414 303.567 378.7 299.236 372.782C294.551 366.388 289.83 364.07 289.781 364.058L290.33 362.898C290.525 362.996 309.923 372.624 310.155 406.851H308.874V406.863Z" fill="#F0F6FF"/>
<path d="M313.913 403.789L312.644 403.679C317.646 347.011 279.753 327.109 279.375 326.914L279.948 325.779C280.339 325.975 319.001 346.279 313.913 403.801V403.789Z" fill="#F0F6FF"/>
<path d="M318.196 405.899C316.842 373.636 320.258 337.749 320.295 337.383L321.563 337.505C321.527 337.859 318.123 373.66 319.477 405.838L318.196 405.887V405.899Z" fill="#F0F6FF"/>
<path d="M320.72 407.779C322.928 394.015 328.332 386.194 332.468 382.057C336.946 377.579 340.959 376.334 340.996 376.322L340.703 375.346C340.532 375.395 324.05 380.642 319.707 407.633L320.72 407.792V407.779Z" fill="#F0F6FF"/>
</g>
<path d="M283.644 328.255C283.644 328.255 275.214 306.792 263.099 322.752C253.266 335.699 263.075 349.866 263.075 349.866C263.075 349.866 315.816 351.208 306.373 331.062C300.566 318.664 283.644 328.255 283.644 328.255Z" fill="#0A65FC"/>
<g opacity="0.5">
<path d="M281.926 329.268C281.926 329.268 266.395 326.864 266.297 328.072C266.2 329.28 279.925 329.841 278.644 331.55C277.363 333.258 264.15 334.698 264.028 336.333C263.906 337.968 276.399 334.002 275.85 335.43C275.301 336.858 266.92 343.593 266.773 345.387C266.639 347.181 274.63 337.797 275.582 338.847C276.533 339.908 277.021 348.401 277.839 346.449C278.656 344.496 277.656 335.93 279.595 334.259C281.523 332.587 292.832 343.288 295.394 341.836C297.969 340.396 282.841 334.344 281.926 329.268Z" fill="#F0F6FF"/>
<path d="M290.051 330.135C290.051 330.135 302.983 330.306 303.373 333.783C303.764 337.249 300.933 333.6 290.051 330.135Z" fill="#F0F6FF"/>
</g>
<path d="M288.23 405.8L294.245 438.429C294.879 441.858 297.868 444.348 301.358 444.348H324.721C328.21 444.348 331.199 441.858 331.833 438.429L337.848 405.8C338.324 403.213 336.347 400.834 333.712 400.834H292.378C289.755 400.834 287.767 403.213 288.243 405.8H288.23Z" fill="#0A65FC"/>
<path d="M284.582 365.937C284.582 365.937 270.1 353.649 267.514 369.951C265.428 383.178 278.055 389.646 278.055 389.646C278.055 389.646 316.851 370.061 302.162 359.115C293.122 352.38 284.57 365.937 284.57 365.937H284.582Z" fill="#0A65FC"/>
<path opacity="0.2" d="M284.582 365.937C284.582 365.937 270.1 353.649 267.514 369.951C265.428 383.178 278.055 389.646 278.055 389.646C278.055 389.646 316.851 370.061 302.162 359.115C293.122 352.38 284.57 365.937 284.57 365.937H284.582Z" fill="#0F172A"/>
<g opacity="0.5">
<path d="M283.729 367.352C283.729 367.352 271.517 371.659 271.92 372.575C272.322 373.49 282.497 368.548 282.241 370.281C281.973 372.013 272.945 378.224 273.494 379.445C274.043 380.677 281.57 372.928 281.716 374.185C281.875 375.442 278.41 383.593 279.008 384.948C279.606 386.302 281.753 376.37 282.851 376.772C283.949 377.163 287.621 383.154 287.45 381.409C287.267 379.676 283.217 373.844 283.973 371.879C284.718 369.915 297.101 373.27 298.406 371.22C299.711 369.17 286.377 370.671 283.729 367.34V367.352Z" fill="#F0F6FF"/>
<path d="M289.965 364.802C289.965 364.802 299.42 359.884 301.055 362.252C302.689 364.619 299.212 363.069 289.965 364.802Z" fill="#F0F6FF"/>
</g>
<path d="M334.443 332.696C334.443 332.696 351.279 318.407 354.268 337.357C356.696 352.732 342.007 360.249 342.007 360.249C342.007 360.249 296.916 337.479 313.996 324.765C324.512 316.943 334.431 332.696 334.431 332.696H334.443Z" fill="#0A65FC"/>
<path opacity="0.3" d="M334.443 332.696C334.443 332.696 351.279 318.407 354.268 337.357C356.696 352.732 342.007 360.249 342.007 360.249C342.007 360.249 296.916 337.479 313.996 324.765C324.512 316.943 334.431 332.696 334.431 332.696H334.443Z" fill="#0F172A"/>
<g opacity="0.5">
<path d="M335.432 334.344C335.432 334.344 349.633 339.347 349.157 340.421C348.681 341.482 336.86 335.735 337.165 337.76C337.47 339.774 347.962 346.985 347.339 348.413C346.705 349.841 337.958 340.848 337.775 342.3C337.592 343.764 341.618 353.233 340.922 354.807C340.227 356.381 337.726 344.838 336.457 345.301C335.176 345.765 330.906 352.708 331.113 350.695C331.321 348.681 336.03 341.897 335.152 339.615C334.285 337.333 319.902 341.238 318.389 338.846C316.876 336.467 332.37 338.212 335.444 334.344H335.432Z" fill="#F0F6FF"/>
<path d="M328.184 331.378C328.184 331.378 317.204 325.667 315.301 328.413C313.398 331.17 317.448 329.364 328.184 331.378Z" fill="#F0F6FF"/>
</g>
<path d="M344.313 375.845C344.313 375.845 355.659 364.204 359.172 377.895C362.015 388.999 351.767 395.528 351.767 395.528C351.767 395.528 317.131 381.959 328.782 371.452C335.944 364.985 344.313 375.857 344.313 375.857V375.845Z" fill="#0A65FC"/>
<path opacity="0.4" d="M344.313 375.845C344.313 375.845 355.659 364.204 359.172 377.895C362.015 388.999 351.767 395.528 351.767 395.528C351.767 395.528 317.131 381.959 328.782 371.452C335.944 364.985 344.313 375.857 344.313 375.857V375.845Z" fill="#0F172A"/>
<g opacity="0.5">
<path d="M345.153 376.992C345.153 376.992 355.901 379.677 355.633 380.494C355.365 381.312 346.3 377.92 346.654 379.372C347.02 380.824 355.206 385.387 354.84 386.486C354.474 387.584 347.434 381.58 347.41 382.666C347.373 383.752 350.985 390.415 350.582 391.623C350.179 392.831 347.557 384.533 346.642 384.96C345.739 385.387 343.091 390.781 343.103 389.28C343.116 387.791 346.093 382.495 345.3 380.873C344.507 379.262 334.234 383.118 332.953 381.47C331.684 379.835 343.165 380.043 345.141 376.992H345.153Z" fill="#F0F6FF"/>
<path d="M339.628 375.32C339.628 375.32 331.173 371.892 329.977 374.039C328.77 376.187 331.612 374.588 339.628 375.32Z" fill="#F0F6FF"/>
</g>
<path d="M417.393 250.672H330.395C326.1 250.672 322.928 247.194 323.294 242.899L327.979 189.306C328.357 185.011 332.139 181.533 336.434 181.533H423.432C427.726 181.533 430.898 185.011 430.532 189.306L425.848 242.899C425.469 247.194 421.687 250.672 417.393 250.672Z" fill="#334155"/>
<path d="M366.129 211.771C365.446 219.605 358.541 225.963 350.708 225.963C342.876 225.963 337.081 219.605 337.764 211.771C338.447 203.937 345.353 197.58 353.185 197.58L353.819 190.332C341.985 190.332 331.542 199.935 330.505 211.771C329.468 223.608 338.228 233.211 350.062 233.211C361.896 233.211 372.339 223.608 373.376 211.771H366.129Z" fill="#0A65FC"/>
<path d="M375.926 208.623C376.963 196.787 368.203 187.184 356.357 187.184L355.723 194.432C363.555 194.432 369.35 200.789 368.667 208.623H375.914H375.926Z" fill="#0A65FC"/>
<path opacity="0.7" d="M375.926 208.623C376.963 196.787 368.203 187.184 356.357 187.184L355.723 194.432C363.555 194.432 369.35 200.789 368.667 208.623H375.914H375.926Z" fill="#F0F6FF"/>
<path d="M358.162 211.772C357.845 215.335 354.71 218.227 351.147 218.227C347.585 218.227 344.95 215.335 345.255 211.772C345.572 208.208 348.707 205.317 352.27 205.317L352.563 202.01C347.17 202.01 342.424 206.378 341.949 211.772C341.473 217.165 345.462 221.533 350.855 221.533C356.247 221.533 360.993 217.165 361.469 211.772H358.162Z" fill="#0A65FC"/>
<path opacity="0.7" d="M358.162 211.772C357.845 215.335 354.71 218.227 351.147 218.227C347.585 218.227 344.95 215.335 345.255 211.772C345.572 208.208 348.707 205.317 352.27 205.317L352.563 202.01C347.17 202.01 342.424 206.378 341.949 211.772C341.473 217.165 345.462 221.533 350.855 221.533C356.247 221.533 360.993 217.165 361.469 211.772H358.162Z" fill="#F0F6FF"/>
<path d="M362.617 210.344C363.093 204.95 359.103 200.582 353.711 200.582L353.418 203.889C356.98 203.889 359.616 206.781 359.311 210.344H362.617Z" fill="#0A65FC"/>
<path d="M404.437 190.332L403.802 197.58C411.635 197.58 417.43 203.938 416.746 211.772C416.063 219.605 409.158 225.963 401.326 225.963C393.493 225.963 387.698 219.605 388.381 211.772C388.723 207.855 390.626 204.304 393.408 201.741L388.723 196.616C384.502 200.497 381.635 205.853 381.122 211.784C380.085 223.632 388.845 233.223 400.679 233.223C412.513 233.223 422.956 223.62 423.993 211.784C425.03 199.947 416.271 190.344 404.437 190.344V190.332Z" fill="#0A65FC"/>
<path opacity="0.7" d="M404.437 190.332L403.802 197.58C411.635 197.58 417.43 203.938 416.746 211.772C416.063 219.605 409.158 225.963 401.326 225.963C393.493 225.963 387.698 219.605 388.381 211.772C388.723 207.855 390.626 204.304 393.408 201.741L388.723 196.616C384.502 200.497 381.635 205.853 381.122 211.784C380.085 223.632 388.845 233.223 400.679 233.223C412.513 233.223 422.956 223.62 423.993 211.784C425.03 199.947 416.271 190.344 404.437 190.344V190.332Z" fill="#F0F6FF"/>
<path d="M387.332 192.638L392.017 197.763C394.811 195.2 398.495 193.602 402.411 193.602L403.046 186.354C397.129 186.354 391.553 188.757 387.332 192.638Z" fill="#0A65FC"/>
<path opacity="0.3" d="M387.332 192.638L392.017 197.763C394.811 195.2 398.495 193.602 402.411 193.602L403.046 186.354C397.129 186.354 391.553 188.757 387.332 192.638Z" fill="#0F172A"/>
<path d="M403.472 201.352L403.167 204.817C406.913 204.817 409.682 207.855 409.353 211.602C409.023 215.348 405.729 218.386 401.984 218.386C398.238 218.386 395.469 215.348 395.798 211.602C395.957 209.735 396.872 208.038 398.202 206.806L395.969 204.353C393.956 206.208 392.578 208.771 392.334 211.602C391.833 217.263 396.018 221.851 401.679 221.851C407.34 221.851 412.329 217.263 412.817 211.602C413.305 205.94 409.133 201.352 403.472 201.352Z" fill="#0A65FC"/>
<path d="M395.297 202.449L397.529 204.902C398.859 203.669 400.628 202.913 402.495 202.913L402.8 199.447C399.97 199.447 397.31 200.594 395.297 202.449Z" fill="#0A65FC"/>
<path opacity="0.3" d="M395.297 202.449L397.529 204.902C398.859 203.669 400.628 202.913 402.495 202.913L402.8 199.447C399.97 199.447 397.31 200.594 395.297 202.449Z" fill="#0F172A"/>
<path d="M340.181 242.607C338.912 242.607 337.985 241.582 338.095 240.325C338.205 239.056 339.315 238.043 340.584 238.043C341.852 238.043 342.78 239.068 342.67 240.325C342.56 241.594 341.45 242.607 340.181 242.607Z" fill="#F0F6FF"/>
<path d="M363.579 241.484H346.524C345.877 241.484 345.401 240.96 345.462 240.325C345.523 239.679 346.084 239.166 346.731 239.166H363.787C364.433 239.166 364.909 239.691 364.848 240.325C364.787 240.972 364.226 241.484 363.579 241.484Z" fill="#F0F6FF"/>
<path d="M358.883 246.061H346.11C345.463 246.061 344.987 245.536 345.048 244.901C345.109 244.255 345.67 243.742 346.317 243.742H359.09C359.737 243.742 360.213 244.267 360.152 244.901C360.091 245.548 359.53 246.061 358.883 246.061Z" fill="#F0F6FF"/>
<path d="M389.638 242.607C388.369 242.607 387.442 241.582 387.552 240.325C387.662 239.056 388.772 238.043 390.041 238.043C391.309 238.043 392.237 239.068 392.127 240.325C392.017 241.594 390.907 242.607 389.638 242.607Z" fill="#F0F6FF"/>
<path d="M413.036 241.484H395.981C395.334 241.484 394.858 240.96 394.919 240.325C394.98 239.679 395.542 239.166 396.188 239.166H413.244C413.89 239.166 414.366 239.691 414.305 240.325C414.244 240.972 413.683 241.484 413.036 241.484Z" fill="#F0F6FF"/>
<path d="M408.34 246.061H395.567C394.92 246.061 394.444 245.536 394.505 244.901C394.566 244.255 395.127 243.742 395.774 243.742H408.547C409.194 243.742 409.67 244.267 409.609 244.901C409.548 245.548 408.987 246.061 408.34 246.061Z" fill="#F0F6FF"/>
<path d="M305.079 279.896H174.735C170.44 279.896 167.268 276.419 167.634 272.123L174.881 189.306C175.259 185.011 179.041 181.533 183.336 181.533H313.68C317.975 181.533 321.147 185.011 320.781 189.306L313.534 272.123C313.156 276.419 309.374 279.896 305.079 279.896Z" fill="#0A65FC"/>
<path opacity="0.7" d="M305.079 279.896H174.735C170.44 279.896 167.268 276.419 167.634 272.123L174.881 189.306C175.259 185.011 179.041 181.533 183.336 181.533H313.68C317.975 181.533 321.147 185.011 320.781 189.306L313.534 272.123C313.156 276.419 309.374 279.896 305.079 279.896Z" fill="#F0F6FF"/>
<path d="M180.189 255.137H176.883L181.311 204.521H184.618L180.189 255.137Z" fill="#0A65FC"/>
<path d="M184.885 255.138H181.566L184.824 217.908H188.142L184.885 255.138Z" fill="#334155"/>
<path d="M192.33 255.138H189.023L191.146 230.807H194.452L192.33 255.138Z" fill="#0A65FC"/>
<path d="M197.013 255.138H193.707L196.245 226.121H199.551L197.013 255.138Z" fill="#334155"/>
<path d="M204.467 255.138H201.148L204.93 211.893H208.249L204.467 255.138Z" fill="#0A65FC"/>
<path d="M209.15 255.138H205.844L209.089 217.908H212.407L209.15 255.138Z" fill="#334155"/>
<path d="M216.595 255.138H213.289L216.546 217.908H219.853L216.595 255.138Z" fill="#0A65FC"/>
<path d="M221.279 255.136H217.973L222.047 208.523H225.366L221.279 255.136Z" fill="#334155"/>
<path d="M228.732 255.138H225.414L227.634 229.83H230.941L228.732 255.138Z" fill="#0A65FC"/>
<path d="M233.419 255.138H230.113L233.371 217.908H236.677L233.419 255.138Z" fill="#334155"/>
<path d="M240.861 255.138H237.555L241.337 211.893H244.643L240.861 255.138Z" fill="#0A65FC"/>
<path d="M245.557 255.138H242.238L246.825 202.668H250.144L245.557 255.138Z" fill="#334155"/>
<path d="M252.998 255.138H249.691L250.887 241.361H254.205L252.998 255.138Z" fill="#0A65FC"/>
<path d="M257.685 255.138H254.379L256.611 229.635H259.918L257.685 255.138Z" fill="#334155"/>
<path d="M265.127 255.138H261.82L263.955 230.807H267.262L265.127 255.138Z" fill="#0A65FC"/>
<path d="M269.822 255.138H266.504L270.688 207.354H273.995L269.822 255.138Z" fill="#334155"/>
<path d="M277.263 255.138H273.957L276.702 223.766H280.008L277.263 255.138Z" fill="#0A65FC"/>
<path d="M281.951 255.137H278.645L283.952 194.455H287.258L281.951 255.137Z" fill="#334155"/>
<path d="M289.404 255.138H286.086L289.648 214.395H292.967L289.404 255.138Z" fill="#0A65FC"/>
<path d="M294.087 255.138H290.781L294.026 217.908H297.345L294.087 255.138Z" fill="#334155"/>
<path d="M301.529 255.136H298.223L302.712 203.838H306.018L301.529 255.136Z" fill="#0A65FC"/>
<path d="M306.216 255.136H302.91L305.558 224.936H308.864L306.216 255.136Z" fill="#334155"/>
<path d="M178.931 268.95C177.137 268.95 175.807 267.498 175.966 265.692C176.125 263.898 177.711 262.434 179.504 262.434C181.297 262.434 182.627 263.886 182.469 265.692C182.31 267.485 180.724 268.95 178.931 268.95Z" fill="#334155"/>
<path d="M212.214 267.35H187.948C187.033 267.35 186.362 266.606 186.435 265.691C186.521 264.776 187.326 264.031 188.229 264.031H212.494C213.409 264.031 214.08 264.776 214.007 265.691C213.922 266.606 213.117 267.35 212.214 267.35Z" fill="#334155"/>
<path d="M205.551 273.854H187.385C186.47 273.854 185.799 273.11 185.873 272.195C185.958 271.279 186.763 270.535 187.666 270.535H205.832C206.747 270.535 207.418 271.279 207.345 272.195C207.259 273.11 206.454 273.854 205.551 273.854Z" fill="#334155"/>
<path opacity="0.3" d="M212.214 267.35H187.948C187.033 267.35 186.362 266.606 186.435 265.691C186.521 264.776 187.326 264.031 188.229 264.031H212.494C213.409 264.031 214.08 264.776 214.007 265.691C213.922 266.606 213.117 267.35 212.214 267.35Z" fill="#F0F6FF"/>
<path opacity="0.3" d="M205.551 273.854H187.385C186.47 273.854 185.799 273.11 185.873 272.195C185.958 271.279 186.763 270.535 187.666 270.535H205.832C206.747 270.535 207.418 271.279 207.345 272.195C207.259 273.11 206.454 273.854 205.551 273.854Z" fill="#F0F6FF"/>
<path d="M226.915 268.95C225.122 268.95 223.792 267.498 223.95 265.692C224.109 263.898 225.695 262.434 227.488 262.434C229.282 262.434 230.612 263.886 230.453 265.692C230.294 267.485 228.708 268.95 226.915 268.95Z" fill="#0A65FC"/>
<path opacity="0.3" d="M226.915 268.95C225.122 268.95 223.792 267.498 223.95 265.692C224.109 263.898 225.695 262.434 227.488 262.434C229.282 262.434 230.612 263.886 230.453 265.692C230.294 267.485 228.708 268.95 226.915 268.95Z" fill="#0F172A"/>
<path d="M260.198 267.35H235.932C235.017 267.35 234.346 266.606 234.42 265.691C234.505 264.776 235.31 264.031 236.213 264.031H260.479C261.394 264.031 262.065 264.776 261.992 265.691C261.906 266.606 261.101 267.35 260.198 267.35Z" fill="#334155"/>
<path d="M253.536 273.854H235.37C234.455 273.854 233.784 273.11 233.857 272.195C233.942 271.279 234.748 270.535 235.65 270.535H253.816C254.731 270.535 255.402 271.279 255.329 272.195C255.244 273.11 254.438 273.854 253.536 273.854Z" fill="#334155"/>
<path opacity="0.3" d="M260.198 267.35H235.932C235.017 267.35 234.346 266.606 234.42 265.691C234.505 264.776 235.31 264.031 236.213 264.031H260.479C261.394 264.031 262.065 264.776 261.992 265.691C261.906 266.606 261.101 267.35 260.198 267.35Z" fill="#F0F6FF"/>
<path opacity="0.3" d="M253.536 273.854H235.37C234.455 273.854 233.784 273.11 233.857 272.195C233.942 271.279 234.748 270.535 235.65 270.535H253.816C254.731 270.535 255.402 271.279 255.329 272.195C255.244 273.11 254.438 273.854 253.536 273.854Z" fill="#F0F6FF"/>
<path d="M274.895 268.95C273.102 268.95 271.772 267.498 271.931 265.692C272.089 263.898 273.675 262.434 275.469 262.434C277.262 262.434 278.592 263.886 278.433 265.692C278.275 267.485 276.689 268.95 274.895 268.95Z" fill="#0A65FC"/>
<path d="M308.179 267.35H283.913C282.998 267.35 282.327 266.606 282.4 265.691C282.485 264.776 283.291 264.031 284.193 264.031H308.459C309.374 264.031 310.045 264.776 309.972 265.691C309.887 266.606 309.081 267.35 308.179 267.35Z" fill="#334155"/>
<path d="M301.516 273.854H283.35C282.435 273.854 281.764 273.11 281.837 272.195C281.923 271.279 282.728 270.535 283.631 270.535H301.797C302.712 270.535 303.383 271.279 303.309 272.195C303.224 273.11 302.419 273.854 301.516 273.854Z" fill="#334155"/>
<path opacity="0.3" d="M308.179 267.35H283.913C282.998 267.35 282.327 266.606 282.4 265.691C282.485 264.776 283.291 264.031 284.193 264.031H308.459C309.374 264.031 310.045 264.776 309.972 265.691C309.887 266.606 309.081 267.35 308.179 267.35Z" fill="#F0F6FF"/>
<path opacity="0.3" d="M301.516 273.854H283.35C282.435 273.854 281.764 273.11 281.837 272.195C281.923 271.279 282.728 270.535 283.631 270.535H301.797C302.712 270.535 303.383 271.279 303.309 272.195C303.224 273.11 302.419 273.854 301.516 273.854Z" fill="#F0F6FF"/>
<path d="M437.267 173.737H361.481C357.186 173.737 354.014 170.259 354.38 165.964L358.406 119.937C358.785 115.641 362.567 112.164 366.861 112.164H442.647C446.942 112.164 450.114 115.641 449.748 119.937L445.722 165.964C445.344 170.259 441.562 173.737 437.267 173.737Z" fill="#0A65FC"/>
<path d="M394.237 139.974C393.553 147.722 386.734 154.007 378.974 154.007C371.215 154.007 365.493 147.722 366.177 139.974C366.86 132.225 373.68 125.941 381.439 125.941C389.198 125.941 394.92 132.225 394.237 139.974Z" fill="#0A65FC"/>
<path opacity="0.7" d="M394.237 139.974C393.553 147.722 386.734 154.007 378.974 154.007C371.215 154.007 365.493 147.722 366.177 139.974C366.86 132.225 373.68 125.941 381.439 125.941C389.198 125.941 394.92 132.225 394.237 139.974Z" fill="#F0F6FF"/>
<path d="M384.455 137.496C384.186 140.571 383.015 143.06 379.941 143.06C376.866 143.06 376.134 140.571 376.403 137.496C376.671 134.421 377.842 131.931 380.917 131.931C383.991 131.931 384.723 134.421 384.455 137.496Z" fill="#334155"/>
<path d="M379.781 144.781C373.339 144.781 369.85 146.209 368.203 148.32C370.46 151.761 374.352 154.006 378.964 154.006C383.575 154.006 387.87 151.761 390.724 148.32C389.443 146.221 386.21 144.781 379.769 144.781H379.781Z" fill="#334155"/>
<path d="M427.289 124.317H404.511C403.45 124.317 402.657 123.45 402.754 122.389C402.852 121.327 403.791 120.461 404.853 120.461H427.63C428.692 120.461 429.485 121.327 429.387 122.389C429.289 123.45 428.35 124.317 427.289 124.317Z" fill="#F0F6FF"/>
<path d="M433.362 138.557H403.265C402.204 138.557 401.411 137.691 401.508 136.629C401.606 135.567 402.545 134.701 403.607 134.701H433.704C434.765 134.701 435.558 135.567 435.461 136.629C435.363 137.691 434.424 138.557 433.362 138.557Z" fill="#F0F6FF"/>
<path d="M438.841 145.672H402.644C401.583 145.672 400.79 144.806 400.887 143.744C400.985 142.683 401.924 141.816 402.986 141.816H439.183C440.244 141.816 441.037 142.683 440.94 143.744C440.842 144.806 439.903 145.672 438.841 145.672Z" fill="#F0F6FF"/>
<path d="M435.78 152.785H402.023C400.961 152.785 400.168 151.919 400.266 150.857C400.364 149.796 401.303 148.929 402.364 148.929H436.122C437.183 148.929 437.976 149.796 437.879 150.857C437.781 151.919 436.842 152.785 435.78 152.785Z" fill="#F0F6FF"/>
<path d="M431.495 159.91H401.398C400.336 159.91 399.543 159.044 399.641 157.982C399.739 156.921 400.678 156.054 401.739 156.054H431.837C432.898 156.054 433.691 156.921 433.594 157.982C433.496 159.044 432.557 159.91 431.495 159.91Z" fill="#F0F6FF"/>
<path d="M434.534 167.026H400.777C399.715 167.026 398.922 166.159 399.02 165.098C399.118 164.036 400.057 163.17 401.118 163.17H434.876C435.937 163.17 436.73 164.036 436.633 165.098C436.535 166.159 435.596 167.026 434.534 167.026Z" fill="#F0F6FF"/>
<path d="M338.716 173.738H208.371C204.077 173.738 200.905 170.26 201.271 165.965L208.518 83.1479C208.896 78.8527 212.678 75.375 216.972 75.375H347.317C351.612 75.375 354.784 78.8527 354.418 83.1479L347.171 165.965C346.793 170.26 343.011 173.738 338.716 173.738Z" fill="#0A65FC"/>
<path opacity="0.7" d="M338.716 173.738H208.371C204.077 173.738 200.905 170.26 201.271 165.965L208.518 83.1479C208.896 78.8527 212.678 75.375 216.972 75.375H347.317C351.612 75.375 354.784 78.8527 354.418 83.1479L347.171 165.965C346.793 170.26 343.011 173.738 338.716 173.738Z" fill="#F0F6FF"/>
<path d="M351.685 114.409C349.148 105.294 345.17 96.1669 339.363 96.1669C328.395 96.1669 323.052 113.348 317.379 131.529C312.401 147.514 307.253 164.036 299.225 164.036C289.038 164.036 286.244 143.597 283.548 123.83C280.523 101.682 277.668 80.7676 264.553 80.7676C251.438 80.7676 244.911 101.682 238.018 123.83C231.857 143.597 225.488 164.036 215.301 164.036C210.531 164.036 206.103 149.967 203.785 137.435L202.711 149.662C205.249 158.704 209.214 167.697 214.972 167.697C228.087 167.697 234.602 146.782 241.507 124.635C247.668 104.867 254.036 84.4283 264.223 84.4283C274.41 84.4283 277.204 104.867 279.9 124.635C282.926 146.782 285.781 167.697 298.896 167.697C309.864 167.697 315.207 150.516 320.88 132.335C325.858 116.35 331.006 99.8276 339.034 99.8276C343.828 99.8276 348.294 114.117 350.599 126.709L351.673 114.409H351.685Z" fill="#0A65FC"/>
<path d="M270.312 81.9882C270.055 84.9046 267.493 87.2596 264.578 87.2596C261.662 87.2596 259.515 84.8924 259.771 81.9882C260.027 79.0719 262.589 76.7168 265.505 76.7168C268.421 76.7168 270.568 79.0841 270.312 81.9882Z" fill="#334155"/>
<path d="M266.771 83.7796C267.861 82.7355 267.966 81.0763 267.006 80.0736C266.046 79.071 264.384 79.1045 263.294 80.1486C262.204 81.1927 262.099 82.8519 263.059 83.8546C264.019 84.8572 265.68 84.8237 266.771 83.7796Z" fill="#0A65FC"/>
<path d="M276.132 59.6699H257.856C255.916 59.6699 254.196 61.244 254.025 63.1842L253.733 66.5154C253.562 68.4556 255.001 70.0297 256.941 70.0297H262.98L264.798 72.7752C265.262 73.4708 266.298 73.4708 266.872 72.7752L269.178 70.0297H275.217C277.156 70.0297 278.877 68.4556 279.048 66.5154L279.34 63.1842C279.511 61.244 278.071 59.6699 276.132 59.6699Z" fill="#0A65FC"/>
<path d="M274.704 64.0862H258.088C257.588 64.0862 257.209 63.6713 257.258 63.171C257.307 62.6707 257.746 62.2559 258.259 62.2559H274.875C275.375 62.2559 275.753 62.6707 275.705 63.171C275.656 63.6713 275.217 64.0862 274.704 64.0862Z" fill="#334155"/>
<path d="M265.396 67.393H257.783C257.283 67.393 256.905 66.9782 256.953 66.4779C257.002 65.9776 257.441 65.5627 257.954 65.5627H265.567C266.067 65.5627 266.445 65.9776 266.396 66.4779C266.347 66.9782 265.908 67.393 265.396 67.393Z" fill="#334155"/>
<path d="M303.714 163.549C303.458 166.465 300.896 168.82 297.98 168.82C295.064 168.82 292.917 166.453 293.173 163.549C293.429 160.632 295.991 158.277 298.907 158.277C301.823 158.277 303.97 160.645 303.714 163.549Z" fill="#334155"/>
<path d="M301.056 163.549C300.934 165.001 299.653 166.173 298.202 166.173C296.75 166.173 295.688 165.001 295.81 163.549C295.932 162.097 297.213 160.926 298.665 160.926C300.117 160.926 301.178 162.097 301.056 163.549Z" fill="#0A65FC"/>
<path d="M309.534 141.219H291.258C289.319 141.219 287.598 142.793 287.428 144.733L287.135 148.064C286.964 150.004 288.404 151.579 290.343 151.579H296.382L298.2 154.324C298.664 155.02 299.701 155.02 300.274 154.324L302.568 151.579H308.607C310.547 151.579 312.267 150.004 312.438 148.064L312.73 144.733C312.901 142.793 311.462 141.219 309.522 141.219H309.534Z" fill="#334155"/>
<path d="M308.107 145.649H291.49C290.99 145.649 290.612 145.234 290.66 144.734C290.709 144.233 291.149 143.818 291.661 143.818H308.277C308.777 143.818 309.156 144.233 309.107 144.734C309.058 145.234 308.619 145.649 308.107 145.649Z" fill="#F0F6FF"/>
<path d="M298.798 148.956H291.185C290.685 148.956 290.307 148.541 290.356 148.04C290.405 147.54 290.844 147.125 291.356 147.125H298.969C299.469 147.125 299.847 147.54 299.799 148.04C299.75 148.541 299.311 148.956 298.798 148.956Z" fill="#F0F6FF"/>
<path d="M344.546 97.6796C344.29 100.596 341.728 102.951 338.812 102.951C335.896 102.951 333.749 100.584 334.005 97.6796C334.261 94.7633 336.823 92.4082 339.739 92.4082C342.655 92.4082 344.802 94.7755 344.546 97.6796Z" fill="#334155"/>
<path d="M341.888 97.6801C341.766 99.1322 340.485 100.304 339.034 100.304C337.582 100.304 336.52 99.1322 336.642 97.6801C336.764 96.2281 338.045 95.0566 339.497 95.0566C340.949 95.0566 342.01 96.2281 341.888 97.6801Z" fill="#0A65FC"/>
<path d="M350.366 75.3613H332.09C330.151 75.3613 328.43 76.9354 328.26 78.8756L327.967 82.2068C327.796 84.147 329.236 85.7211 331.175 85.7211H337.214L339.032 88.4666C339.496 89.1622 340.533 89.1622 341.106 88.4666L343.4 85.7211H349.439C351.379 85.7211 353.099 84.147 353.27 82.2068L353.562 78.8756C353.733 76.9354 352.294 75.3613 350.354 75.3613H350.366Z" fill="#0A65FC"/>
<path d="M348.939 79.7776H332.322C331.822 79.7776 331.444 79.3627 331.493 78.8624C331.541 78.3621 331.981 77.9473 332.493 77.9473H349.109C349.61 77.9473 349.988 78.3621 349.939 78.8624C349.89 79.3627 349.451 79.7776 348.939 79.7776Z" fill="#334155"/>
<path d="M339.63 83.0844H332.017C331.517 83.0844 331.139 82.6696 331.188 82.1693C331.237 81.669 331.676 81.2541 332.188 81.2541H339.801C340.301 81.2541 340.679 81.669 340.631 82.1693C340.582 82.6696 340.143 83.0844 339.63 83.0844Z" fill="#334155"/>
<path d="M221.913 164.146C221.657 167.063 219.095 169.418 216.179 169.418C213.263 169.418 211.116 167.051 211.372 164.146C211.629 161.23 214.19 158.875 217.106 158.875C220.022 158.875 222.169 161.242 221.913 164.146Z" fill="#334155"/>
<path d="M219.267 164.147C219.145 165.599 217.864 166.77 216.412 166.77C214.961 166.77 213.899 165.599 214.021 164.147C214.143 162.695 215.424 161.523 216.876 161.523C218.328 161.523 219.389 162.695 219.267 164.147Z" fill="#0A65FC"/>
<path d="M227.733 141.828H209.458C207.518 141.828 205.798 143.402 205.627 145.342L205.334 148.674C205.163 150.614 206.603 152.188 208.543 152.188H214.582L216.399 154.933C216.863 155.629 217.9 155.629 218.473 154.933L220.779 152.188H226.818C228.758 152.188 230.478 150.614 230.649 148.674L230.942 145.342C231.113 143.402 229.673 141.828 227.733 141.828Z" fill="#334155"/>
<path d="M226.306 146.244H209.689C209.189 146.244 208.811 145.83 208.86 145.329C208.908 144.829 209.348 144.414 209.86 144.414H226.476C226.977 144.414 227.355 144.829 227.306 145.329C227.257 145.83 226.818 146.244 226.306 146.244Z" fill="#F0F6FF"/>
<path d="M217.009 149.563H209.396C208.896 149.563 208.518 149.148 208.567 148.648C208.616 148.147 209.055 147.732 209.567 147.732H217.18C217.68 147.732 218.058 148.147 218.01 148.648C217.961 149.148 217.522 149.563 217.009 149.563Z" fill="#F0F6FF"/>
<path d="M133.095 143.403L129.582 149.54L126.129 155.8C123.86 159.985 121.688 164.207 119.712 168.442C118.724 170.565 117.784 172.688 116.93 174.811L116.772 175.202C116.772 175.202 116.735 175.263 116.723 175.287C116.662 175.348 116.65 175.409 116.613 175.458C116.552 175.568 116.503 175.665 116.442 175.812C116.357 176.093 116.381 176.556 116.589 177.179C116.979 178.448 118.126 180.095 119.529 181.632C120.908 183.182 122.689 184.756 124.287 186.147L121.432 192.236C119.98 191.821 118.773 191.406 117.492 190.845C116.223 190.308 114.991 189.662 113.771 188.929C111.343 187.429 108.915 185.586 106.89 182.548C105.914 181.035 105.072 179.155 104.743 176.983C104.596 175.897 104.535 174.775 104.682 173.664C104.743 173.115 104.828 172.554 104.962 172.041L105.157 171.248L105.304 170.772C106.085 168.283 106.902 165.806 107.854 163.427C109.708 158.631 111.794 154.006 114.076 149.504C115.21 147.246 116.394 145.025 117.638 142.829C118.895 140.62 120.102 138.485 121.542 136.252L133.095 143.403Z" fill="#FFC2BC"/>
<path d="M121.239 185.451L127.644 183.779L128.01 194.127C128.01 194.127 122.996 194.871 119.922 191.808L121.227 185.451H121.239Z" fill="#FFC2BC"/>
<path d="M136.733 182.035L135.293 191.126L128.022 194.14L127.656 183.78L136.733 182.035Z" fill="#FFC2BC"/>
<path d="M163.256 94.6186C163.402 95.3263 163.89 95.8266 164.354 95.729C164.818 95.6313 165.074 94.9846 164.927 94.2769C164.781 93.5692 164.293 93.0689 163.829 93.1665C163.366 93.2641 163.11 93.9108 163.256 94.6186Z" fill="#334155"/>
<path d="M163.817 95.8384C163.817 95.8384 166.257 99.5967 168.428 101.207C167.416 102.635 165.171 102.525 165.171 102.525L163.805 95.8262L163.817 95.8384Z" fill="#ED847E"/>
<path d="M159.863 91.2135C159.765 91.2135 159.655 91.1769 159.57 91.1037C159.399 90.9451 159.387 90.6766 159.545 90.5058C161.143 88.7853 163.071 89.0903 163.157 89.1025C163.388 89.1391 163.547 89.3588 163.498 89.5906C163.462 89.8225 163.242 89.9811 163.01 89.9323C162.949 89.9323 161.436 89.7004 160.168 91.0793C160.082 91.1647 159.972 91.2135 159.85 91.2135H159.863Z" fill="#334155"/>
<path d="M143.076 104.588C144.357 111.141 145.65 123.16 141.051 127.54C141.051 127.54 142.844 134.191 155.032 134.191C168.428 134.191 161.437 127.54 161.437 127.54C154.129 125.796 154.312 120.366 155.593 115.277L143.088 104.6L143.076 104.588Z" fill="#FFC2BC"/>
<path d="M138.403 128.747C137.427 126.929 136.341 124.843 138.574 124.184C141.026 123.464 156.8 122.134 161.424 123.476C159.997 126.014 162.412 129.126 162.412 129.126L138.403 128.747Z" fill="#334155"/>
<path d="M98.7179 434.476C99.6207 434.671 100.511 434.72 100.95 434.354C101.133 434.196 101.316 433.903 101.158 433.366C101.072 433.085 100.889 432.878 100.609 432.743C99.4011 432.17 96.6195 433.305 96.4975 433.354C96.4243 433.39 96.3633 433.463 96.3633 433.549C96.3633 433.634 96.4121 433.707 96.4853 433.744C96.9123 433.951 97.8151 434.293 98.7179 434.488V434.476ZM100.182 433.049C100.267 433.073 100.353 433.097 100.426 433.134C100.597 433.219 100.694 433.329 100.743 433.5C100.853 433.878 100.719 434 100.67 434.037C100.182 434.452 98.4007 434.074 97.1319 433.561C97.9859 433.256 99.3767 432.878 100.17 433.049H100.182Z" fill="#0A65FC"/>
<path d="M96.5315 433.756C96.5315 433.756 96.6047 433.756 96.6413 433.756C97.6539 433.464 99.8255 431.926 99.8499 430.901C99.8499 430.718 99.7889 430.376 99.3009 430.218C98.9837 430.108 98.6665 430.132 98.3615 430.291C97.1659 430.901 96.4095 433.39 96.3729 433.488C96.3485 433.561 96.3729 433.647 96.4217 433.695C96.4461 433.72 96.4827 433.744 96.5315 433.756ZM99.0691 430.584C99.0691 430.584 99.1301 430.596 99.1667 430.608C99.4351 430.694 99.4229 430.828 99.4229 430.889C99.4107 431.487 97.9833 432.695 96.9219 433.183C97.1903 432.463 97.7881 431.048 98.5567 430.657C98.7275 430.572 98.8983 430.547 99.0691 430.584Z" fill="#0A65FC"/>
<path d="M164.89 435.99C166.037 435.99 167.147 435.831 167.526 435.319C167.66 435.136 167.757 434.831 167.513 434.392C167.379 434.147 167.147 433.977 166.842 433.891C165.354 433.489 162.219 435.27 162.084 435.343C162.011 435.392 161.962 435.478 161.987 435.563C161.999 435.648 162.072 435.722 162.158 435.734C162.731 435.844 163.841 435.99 164.903 435.99H164.89ZM166.306 434.257C166.452 434.257 166.598 434.27 166.72 434.306C166.916 434.355 167.05 434.453 167.135 434.599C167.282 434.867 167.233 434.989 167.172 435.063C166.757 435.636 164.488 435.661 162.829 435.417C163.658 434.989 165.269 434.245 166.306 434.245V434.257Z" fill="#0A65FC"/>
<path d="M162.18 435.734C162.18 435.734 162.241 435.734 162.265 435.71C163.351 435.221 165.486 433.281 165.328 432.269C165.291 432.024 165.12 431.732 164.535 431.671C164.095 431.622 163.705 431.744 163.363 432.037C162.229 432.976 161.985 435.392 161.973 435.49C161.973 435.563 161.997 435.636 162.058 435.685C162.095 435.71 162.143 435.722 162.18 435.722V435.734ZM164.364 432.098C164.364 432.098 164.449 432.098 164.486 432.098C164.864 432.134 164.888 432.293 164.901 432.342C164.998 432.952 163.546 434.477 162.436 435.136C162.546 434.428 162.875 432.988 163.62 432.366C163.839 432.183 164.083 432.085 164.352 432.085L164.364 432.098Z" fill="#0A65FC"/>
<path d="M152.324 435.526H161.291L162.182 414.77H153.215L152.324 435.526Z" fill="#FFC2BC"/>
<path d="M86.543 431.378L95.3026 433.269L104.099 413.941L95.3392 412.037L86.543 431.378Z" fill="#FFC2BC"/>
<path d="M96.1425 432.39L86.2971 430.254C85.9433 430.181 85.5773 430.364 85.4187 430.694L82.0027 438.113C81.6489 438.881 82.1125 439.784 82.9421 439.943C86.3947 440.626 88.1027 440.785 92.4337 441.724C95.0933 442.298 101.108 443.762 104.78 444.568C108.379 445.349 109.721 441.834 108.294 441.175C101.864 438.235 99.1803 435.648 97.4357 433.244C97.1185 432.805 96.6549 432.512 96.1303 432.402L96.1425 432.39Z" fill="#334155"/>
<path d="M161.229 434.49H151.445C151.079 434.49 150.762 434.746 150.676 435.1L148.907 443.068C148.724 443.898 149.346 444.679 150.2 444.667C153.726 444.606 158.838 444.399 163.266 444.399C168.451 444.399 172.941 444.679 179.017 444.679C182.701 444.679 183.714 440.957 182.176 440.616C175.161 439.078 169.44 438.92 163.376 435.186C162.717 434.783 161.986 434.49 161.217 434.49H161.229Z" fill="#334155"/>
<path d="M125.007 129.565C116.601 131.492 109.684 152.944 109.684 152.944L126.556 165.805C126.556 165.805 132.742 159.973 135.499 149.235C138.39 137.996 133.596 127.6 125.007 129.565Z" fill="#0A65FC"/>
<path opacity="0.2" d="M132.206 145.33C127.643 149.845 126.155 158.069 125.801 165.22L126.545 165.793C126.545 165.793 132.743 159.948 135.5 149.223C135.671 148.551 135.817 147.88 135.939 147.221L132.206 145.33Z" fill="#0F172A"/>
<path d="M175.211 130.017C175.211 130.017 182.092 136.753 179.493 172.567C178.81 182.036 175.186 193.542 173.308 207.502H131.474C131.144 200.144 132.108 164.232 125.008 129.553C125.008 129.553 133.231 127.906 141.051 127.528C147.175 127.235 156.045 127.04 161.425 127.528C168.525 128.174 175.211 130.017 175.211 130.017Z" fill="#334155"/>
<path opacity="0.6" d="M180.068 160.011C179.275 154.813 178.445 150.261 177.591 146.344L177.335 146.186L164.195 151.689C164.83 159.84 173.467 168.089 179.47 172.896C179.47 172.787 179.494 172.677 179.506 172.567C179.848 167.893 180.019 163.733 180.068 160.011Z" fill="#0F172A"/>
<path opacity="0.2" d="M162.185 414.77L161.721 425.471H152.754L153.217 414.77H162.185Z" fill="#0F172A"/>
<path opacity="0.2" d="M95.3392 412.049L104.099 413.94L99.5604 423.909L90.8008 422.006L95.3392 412.049Z" fill="#0F172A"/>
<path d="M139.317 97.9246C141.623 106.515 142.526 111.664 147.833 115.24C155.812 120.609 165.743 114.447 166.048 105.344C166.328 97.1437 162.51 84.4655 153.299 82.7327C144.21 81.0244 137.024 89.3342 139.317 97.9246Z" fill="#FFC2BC"/>
<path d="M158.742 207.502C158.742 207.502 148.567 276.006 142.992 301.68C136.88 329.782 104.086 422.776 104.086 422.776L88.043 419.298C88.043 419.298 110.967 343.521 116.103 304.23C118.384 286.72 118.714 256.995 121.654 235.104C123.789 219.253 131.475 207.514 131.475 207.514H158.742V207.502Z" fill="#334155"/>
<path d="M107.928 417.405C108.001 417.418 104.939 423.214 104.939 423.214L86.8828 419.309L88.4078 413.879L107.928 417.418V417.405Z" fill="#0A65FC"/>
<path opacity="0.6" d="M152.311 231.918C140.55 234.224 141.795 278.091 143.21 300.653C146.601 284.705 151.567 254.016 154.958 232.235C154.178 231.845 153.299 231.723 152.311 231.918Z" fill="#0F172A"/>
<path d="M173.307 207.502C173.307 207.502 176.98 274.529 176.004 301.863C174.991 330.294 165.06 423.398 165.06 423.398H149.871C149.871 423.398 149.31 331.954 148.639 304.035C147.907 273.59 144.223 207.502 144.223 207.502H173.295H173.307Z" fill="#334155"/>
<path d="M167.989 417.357C168.062 417.357 167.135 423.666 167.135 423.666H148.664L148.164 418.041L167.989 417.357Z" fill="#0A65FC"/>
<path d="M179.641 138.204C181.019 140.351 182.593 142.755 184.155 144.988C185.753 147.233 187.351 149.479 189.035 151.638C192.365 155.958 195.903 160.119 199.71 163.56C200.649 164.426 201.613 165.244 202.589 165.988L203.321 166.537C203.26 166.501 203.028 166.415 202.894 166.391C202.577 166.33 202.418 166.391 202.504 166.428C202.687 166.525 203.577 166.367 204.517 165.964C205.456 165.561 206.542 165.012 207.603 164.365C211.898 161.705 216.326 157.984 220.486 154.372L225.72 158.606C222.475 163.841 218.9 168.575 213.984 172.919C212.739 173.993 211.397 175.055 209.787 176.006C208.164 176.934 206.334 177.898 203.638 178.288C202.296 178.459 200.661 178.435 198.978 177.898C198.16 177.654 197.282 177.214 196.611 176.8L195.55 176.128C194.159 175.225 192.829 174.274 191.56 173.273C186.509 169.271 182.3 164.768 178.421 160.082C176.505 157.715 174.651 155.323 172.943 152.834C171.198 150.321 169.576 147.917 167.953 145.122L179.641 138.191V138.204Z" fill="#FFC2BC"/>
<path d="M162.034 143.586C159.167 155.606 180.907 167.369 180.907 167.369L195.035 150.822C195.035 150.822 188.606 141.073 180.602 133.397C170.72 123.916 164.218 134.435 162.034 143.586Z" fill="#0A65FC"/>
<path d="M219.07 156.873L222.401 146.172L231.173 150.54C231.173 150.54 229.892 158.35 223.511 159.704L219.07 156.873Z" fill="#FFC2BC"/>
<path d="M225.912 143.195L233.83 145.38L231.17 150.541L222.398 146.16L225.912 143.195Z" fill="#FFC2BC"/>
<path d="M148.36 110.591C148.36 110.591 155.705 109.371 157.62 101.232C157.62 101.232 155.705 96.0946 159.426 92.5926C163.147 89.0905 161.292 85.2468 157.62 84.5512C153.948 83.8557 148.36 88.2485 148.36 88.2485L143.883 96.2533L145.701 104.331L148.348 110.591H148.36Z" fill="#334155"/>
<path opacity="0.3" d="M148.36 110.591C148.36 110.591 155.705 109.371 157.62 101.232C157.62 101.232 155.705 96.0946 159.426 92.5926C163.147 89.0905 161.292 85.2468 157.62 84.5512C153.948 83.8557 148.36 88.2485 148.36 88.2485L143.883 96.2533L145.701 104.331L148.348 110.591H148.36Z" fill="#F0F6FF"/>
<path d="M153.934 98.2779C154.52 100.535 155.996 102.476 157.545 103.623C159.876 105.355 161.62 103.647 161.449 101.011C161.303 98.6318 159.912 94.8734 157.338 94.1657C154.8 93.4702 153.263 95.7032 153.922 98.2779H153.934Z" fill="#FFC2BC"/>
<path d="M149.616 108.199C147.433 102.988 143.407 89.5049 157.62 84.5508C157.62 84.5508 156.595 71.5431 163.5 76.8389C163.5 76.8389 156.888 68.3949 155.973 77.0463C155.973 77.0463 154.35 74.0934 156.79 72.1654C156.79 72.1654 143.773 67.797 144.078 77.6565C144.078 77.6565 142.76 74.252 144.993 71.5309C144.993 71.5309 142.162 71.3478 141.04 75.8261C139.917 80.3044 128.937 79.377 129.901 89.5537C129.901 89.5537 120.19 101.817 143.577 112.311C143.577 112.311 140.503 114.215 142.26 117.241C142.26 117.241 143.077 113.91 146.432 112.311C146.432 112.311 144.907 115.789 148.165 116.802C148.165 116.802 146.993 113.788 149.128 111.445C149.921 110.578 150.08 109.285 149.616 108.199Z" fill="#334155"/>
<path opacity="0.1" d="M158.02 113.543C154.921 113.689 155.104 116.716 155.153 117.179C157.824 116.935 160.35 115.739 162.277 113.86C161.155 114.08 159.959 113.458 158.02 113.555V113.543Z" fill="#0F172A"/>
<path d="M156.445 83.233C156.445 83.233 158.044 77.3515 161.057 78.5107C164.07 79.6699 161.935 84.4532 163.509 86.6863C163.509 86.6863 161.24 85.8931 160.801 83.111C160.362 80.3288 157.629 84.5387 157.629 84.5387L156.445 83.233Z" fill="#334155"/>
<path d="M157.631 106.844L160.534 103.513L159.424 102.537H155.825L154.715 103.513L157.631 106.844Z" fill="#0A65FC"/>
<path opacity="0.2" d="M157.228 102.537H155.825L154.715 103.513L157.631 106.844L156.118 103.513L157.228 102.537Z" fill="#F0F6FF"/>
</g>
<defs>
<clipPath id="clip0_482_8542">
<rect width="514" height="454" fill="white"/>
</clipPath>
</defs>
</svg>